%TF.GenerationSoftware,KiCad,Pcbnew,7.0.5*%
%TF.CreationDate,2023-10-06T16:43:15+02:00*%
%TF.ProjectId,USBTTLPGM_00,55534254-544c-4504-974d-5f30302e6b69,00*%
%TF.SameCoordinates,PX8b8aa80PY5faea10*%
%TF.FileFunction,Soldermask,Top*%
%TF.FilePolarity,Negative*%
%FSLAX46Y46*%
G04 Gerber Fmt 4.6, Leading zero omitted, Abs format (unit mm)*
G04 Created by KiCad (PCBNEW 7.0.5) date 2023-10-06 16:43:15*
%MOMM*%
%LPD*%
G01*
G04 APERTURE LIST*
G04 Aperture macros list*
%AMRoundRect*
0 Rectangle with rounded corners*
0 $1 Rounding radius*
0 $2 $3 $4 $5 $6 $7 $8 $9 X,Y pos of 4 corners*
0 Add a 4 corners polygon primitive as box body*
4,1,4,$2,$3,$4,$5,$6,$7,$8,$9,$2,$3,0*
0 Add four circle primitives for the rounded corners*
1,1,$1+$1,$2,$3*
1,1,$1+$1,$4,$5*
1,1,$1+$1,$6,$7*
1,1,$1+$1,$8,$9*
0 Add four rect primitives between the rounded corners*
20,1,$1+$1,$2,$3,$4,$5,0*
20,1,$1+$1,$4,$5,$6,$7,0*
20,1,$1+$1,$6,$7,$8,$9,0*
20,1,$1+$1,$8,$9,$2,$3,0*%
G04 Aperture macros list end*
%ADD10C,0.100000*%
%ADD11RoundRect,0.750000X-0.750000X-0.750000X0.750000X-0.750000X0.750000X0.750000X-0.750000X0.750000X0*%
%ADD12RoundRect,0.500000X-0.500000X-0.500000X0.500000X-0.500000X0.500000X0.500000X-0.500000X0.500000X0*%
%ADD13RoundRect,0.250000X-0.250000X-0.475000X0.250000X-0.475000X0.250000X0.475000X-0.250000X0.475000X0*%
%ADD14RoundRect,0.250000X0.250000X0.475000X-0.250000X0.475000X-0.250000X-0.475000X0.250000X-0.475000X0*%
%ADD15RoundRect,0.317500X0.952500X0.000000X-0.952500X0.000000X-0.952500X0.000000X0.952500X0.000000X0*%
%ADD16RoundRect,0.150000X0.400000X0.150000X-0.400000X0.150000X-0.400000X-0.150000X0.400000X-0.150000X0*%
%ADD17RoundRect,0.325000X0.325000X-0.450000X0.325000X0.450000X-0.325000X0.450000X-0.325000X-0.450000X0*%
%ADD18RoundRect,0.437500X0.812500X0.437500X-0.812500X0.437500X-0.812500X-0.437500X0.812500X-0.437500X0*%
%ADD19RoundRect,0.325000X-0.325000X-0.525000X0.325000X-0.525000X0.325000X0.525000X-0.325000X0.525000X0*%
%ADD20C,3.200000*%
%ADD21C,0.900000*%
G04 APERTURE END LIST*
D10*
X8500000Y8000000D02*
X8500000Y-8000000D01*
D11*
%TO.C,CN4*%
X6715000Y-5715000D03*
%TD*%
D12*
%TO.C,CN3*%
X6715000Y-1905000D03*
%TD*%
%TO.C,CN2*%
X6715000Y1905000D03*
%TD*%
%TO.C,CN1*%
X6715000Y5715000D03*
%TD*%
D13*
%TO.C,LD5*%
X-590000Y6350000D03*
X-2490000Y6350000D03*
%TD*%
%TO.C,LD4*%
X-15830000Y-1270000D03*
X-17730000Y-1270000D03*
%TD*%
D14*
%TO.C,LD2*%
X-6935000Y-6350000D03*
X-5035000Y-6350000D03*
%TD*%
D13*
%TO.C,LD1*%
X-15830000Y3810000D03*
X-17730000Y3810000D03*
%TD*%
D15*
%TO.C,IC2*%
X-2098800Y-6985000D03*
X-2098800Y-5715000D03*
X-2098800Y-4445000D03*
X-2098800Y-3175000D03*
X-2098800Y-1905000D03*
X-2098800Y-635000D03*
X-2098800Y635000D03*
X-2098800Y1905000D03*
X2828800Y1905000D03*
X2828800Y635000D03*
X2828800Y-635000D03*
X2828800Y-1905000D03*
X2828800Y-3175000D03*
X2828800Y-4445000D03*
X2828800Y-5715000D03*
X2828800Y-6985000D03*
%TD*%
D16*
%TO.C,IC1*%
X970000Y4130000D03*
X970000Y6030000D03*
X3570000Y6030000D03*
X3570000Y5080000D03*
X3570000Y4130000D03*
%TD*%
D13*
%TO.C,C2*%
X-14555000Y1270000D03*
X-12655000Y1270000D03*
%TD*%
D14*
%TO.C,C1*%
X-590000Y4445000D03*
X-2490000Y4445000D03*
%TD*%
D17*
%TO.C,SW1*%
X-10140000Y-3975000D03*
X-5640000Y-3975000D03*
X-10140000Y3975000D03*
X-5640000Y3975000D03*
%TD*%
D13*
%TO.C,R10*%
X-6935000Y6350000D03*
X-5035000Y6350000D03*
%TD*%
%TO.C,R9*%
X-12655000Y-1270000D03*
X-14555000Y-1270000D03*
%TD*%
%TO.C,R8*%
X-12655000Y-3810000D03*
X-14555000Y-3810000D03*
%TD*%
D14*
%TO.C,R5*%
X-14555000Y6350000D03*
X-12655000Y6350000D03*
%TD*%
%TO.C,R4*%
X-15830000Y6350000D03*
X-17730000Y6350000D03*
%TD*%
%TO.C,R3*%
X-8845000Y-6350000D03*
X-10745000Y-6350000D03*
%TD*%
D13*
%TO.C,R2*%
X-14555000Y3810000D03*
X-12655000Y3810000D03*
%TD*%
D14*
%TO.C,R1*%
X-8845000Y6350000D03*
X-10745000Y6350000D03*
%TD*%
D18*
%TO.C,P6*%
X-19620000Y-6350000D03*
%TD*%
%TO.C,P5*%
X-19620000Y-3810000D03*
%TD*%
%TO.C,P4*%
X-19620000Y-1270000D03*
%TD*%
%TO.C,P3*%
X-19620000Y1270000D03*
%TD*%
%TO.C,P2*%
X-19620000Y3810000D03*
%TD*%
%TO.C,P1*%
X-19620000Y6350000D03*
%TD*%
D13*
%TO.C,LD3*%
X-15830000Y-3810000D03*
X-17730000Y-3810000D03*
%TD*%
D19*
%TO.C,D1*%
X-17260000Y-6350000D03*
X-13760000Y-6350000D03*
%TD*%
D20*
X18780000Y-5500000D03*
X18780000Y5500000D03*
D21*
X-4080000Y4445000D03*
X4810000Y4434475D03*
X-4080000Y-635000D03*
X-11065000Y-1905000D03*
X-13922500Y7302500D03*
X-10112500Y2222500D03*
X-16462500Y5397500D03*
X-9160000Y952500D03*
X-9160000Y-635000D03*
X682500Y-4445000D03*
X682500Y-5715000D03*
M02*
