%TF.GenerationSoftware,KiCad,Pcbnew,7.0.5*%
%TF.CreationDate,2023-10-06T16:43:15+02:00*%
%TF.ProjectId,USBTTLPGM_00,55534254-544c-4504-974d-5f30302e6b69,00*%
%TF.SameCoordinates,PX8b8aa80PY5faea10*%
%TF.FileFunction,Legend,Bot*%
%TF.FilePolarity,Positive*%
%FSLAX46Y46*%
G04 Gerber Fmt 4.6, Leading zero omitted, Abs format (unit mm)*
G04 Created by KiCad (PCBNEW 7.0.5) date 2023-10-06 16:43:15*
%MOMM*%
%LPD*%
G01*
G04 APERTURE LIST*
G04 Aperture macros list*
%AMRoundRect*
0 Rectangle with rounded corners*
0 $1 Rounding radius*
0 $2 $3 $4 $5 $6 $7 $8 $9 X,Y pos of 4 corners*
0 Add a 4 corners polygon primitive as box body*
4,1,4,$2,$3,$4,$5,$6,$7,$8,$9,$2,$3,0*
0 Add four circle primitives for the rounded corners*
1,1,$1+$1,$2,$3*
1,1,$1+$1,$4,$5*
1,1,$1+$1,$6,$7*
1,1,$1+$1,$8,$9*
0 Add four rect primitives between the rounded corners*
20,1,$1+$1,$2,$3,$4,$5,0*
20,1,$1+$1,$4,$5,$6,$7,0*
20,1,$1+$1,$6,$7,$8,$9,0*
20,1,$1+$1,$8,$9,$2,$3,0*%
G04 Aperture macros list end*
%ADD10C,0.150000*%
%ADD11C,0.100000*%
%ADD12RoundRect,0.750000X-0.750000X-0.750000X0.750000X-0.750000X0.750000X0.750000X-0.750000X0.750000X0*%
%ADD13RoundRect,0.500000X-0.500000X-0.500000X0.500000X-0.500000X0.500000X0.500000X-0.500000X0.500000X0*%
%ADD14RoundRect,0.437500X0.812500X0.437500X-0.812500X0.437500X-0.812500X-0.437500X0.812500X-0.437500X0*%
%ADD15C,3.200000*%
%ADD16C,0.900000*%
G04 APERTURE END LIST*
D10*
%TO.C,P6*%
X-12716310Y-6423866D02*
X-13478214Y-6423866D01*
X-13097262Y-6804819D02*
X-13097262Y-6042914D01*
X-13859167Y-5804819D02*
X-14478214Y-5804819D01*
X-14478214Y-5804819D02*
X-14144881Y-6185771D01*
X-14144881Y-6185771D02*
X-14287738Y-6185771D01*
X-14287738Y-6185771D02*
X-14382976Y-6233390D01*
X-14382976Y-6233390D02*
X-14430595Y-6281009D01*
X-14430595Y-6281009D02*
X-14478214Y-6376247D01*
X-14478214Y-6376247D02*
X-14478214Y-6614342D01*
X-14478214Y-6614342D02*
X-14430595Y-6709580D01*
X-14430595Y-6709580D02*
X-14382976Y-6757200D01*
X-14382976Y-6757200D02*
X-14287738Y-6804819D01*
X-14287738Y-6804819D02*
X-14002024Y-6804819D01*
X-14002024Y-6804819D02*
X-13906786Y-6757200D01*
X-13906786Y-6757200D02*
X-13859167Y-6709580D01*
X-14763929Y-5804819D02*
X-15097262Y-6804819D01*
X-15097262Y-6804819D02*
X-15430595Y-5804819D01*
X-15906786Y-6804819D02*
X-15811548Y-6757200D01*
X-15811548Y-6757200D02*
X-15763929Y-6709580D01*
X-15763929Y-6709580D02*
X-15716310Y-6614342D01*
X-15716310Y-6614342D02*
X-15716310Y-6328628D01*
X-15716310Y-6328628D02*
X-15763929Y-6233390D01*
X-15763929Y-6233390D02*
X-15811548Y-6185771D01*
X-15811548Y-6185771D02*
X-15906786Y-6138152D01*
X-15906786Y-6138152D02*
X-16049643Y-6138152D01*
X-16049643Y-6138152D02*
X-16144881Y-6185771D01*
X-16144881Y-6185771D02*
X-16192500Y-6233390D01*
X-16192500Y-6233390D02*
X-16240119Y-6328628D01*
X-16240119Y-6328628D02*
X-16240119Y-6614342D01*
X-16240119Y-6614342D02*
X-16192500Y-6709580D01*
X-16192500Y-6709580D02*
X-16144881Y-6757200D01*
X-16144881Y-6757200D02*
X-16049643Y-6804819D01*
X-16049643Y-6804819D02*
X-15906786Y-6804819D01*
X-17097262Y-6138152D02*
X-17097262Y-6804819D01*
X-16668691Y-6138152D02*
X-16668691Y-6661961D01*
X-16668691Y-6661961D02*
X-16716310Y-6757200D01*
X-16716310Y-6757200D02*
X-16811548Y-6804819D01*
X-16811548Y-6804819D02*
X-16954405Y-6804819D01*
X-16954405Y-6804819D02*
X-17049643Y-6757200D01*
X-17049643Y-6757200D02*
X-17097262Y-6709580D01*
X-17430596Y-6138152D02*
X-17811548Y-6138152D01*
X-17573453Y-5804819D02*
X-17573453Y-6661961D01*
X-17573453Y-6661961D02*
X-17621072Y-6757200D01*
X-17621072Y-6757200D02*
X-17716310Y-6804819D01*
X-17716310Y-6804819D02*
X-17811548Y-6804819D01*
%TO.C,P5*%
X-16407025Y-3264819D02*
X-16978453Y-3264819D01*
X-16692739Y-4264819D02*
X-16692739Y-3264819D01*
X-17216549Y-4264819D02*
X-17740358Y-3598152D01*
X-17216549Y-3598152D02*
X-17740358Y-4264819D01*
%TO.C,P4*%
X-17002262Y-1724819D02*
X-16668929Y-1248628D01*
X-16430834Y-1724819D02*
X-16430834Y-724819D01*
X-16430834Y-724819D02*
X-16811786Y-724819D01*
X-16811786Y-724819D02*
X-16907024Y-772438D01*
X-16907024Y-772438D02*
X-16954643Y-820057D01*
X-16954643Y-820057D02*
X-17002262Y-915295D01*
X-17002262Y-915295D02*
X-17002262Y-1058152D01*
X-17002262Y-1058152D02*
X-16954643Y-1153390D01*
X-16954643Y-1153390D02*
X-16907024Y-1201009D01*
X-16907024Y-1201009D02*
X-16811786Y-1248628D01*
X-16811786Y-1248628D02*
X-16430834Y-1248628D01*
X-17335596Y-1724819D02*
X-17859405Y-1058152D01*
X-17335596Y-1058152D02*
X-17859405Y-1724819D01*
%TO.C,P3*%
X-16018096Y1767562D02*
X-15922858Y1815181D01*
X-15922858Y1815181D02*
X-15780001Y1815181D01*
X-15780001Y1815181D02*
X-15637144Y1767562D01*
X-15637144Y1767562D02*
X-15541906Y1672324D01*
X-15541906Y1672324D02*
X-15494287Y1577086D01*
X-15494287Y1577086D02*
X-15446668Y1386610D01*
X-15446668Y1386610D02*
X-15446668Y1243753D01*
X-15446668Y1243753D02*
X-15494287Y1053277D01*
X-15494287Y1053277D02*
X-15541906Y958039D01*
X-15541906Y958039D02*
X-15637144Y862800D01*
X-15637144Y862800D02*
X-15780001Y815181D01*
X-15780001Y815181D02*
X-15875239Y815181D01*
X-15875239Y815181D02*
X-16018096Y862800D01*
X-16018096Y862800D02*
X-16065715Y910420D01*
X-16065715Y910420D02*
X-16065715Y1243753D01*
X-16065715Y1243753D02*
X-15875239Y1243753D01*
X-16494287Y815181D02*
X-16494287Y1815181D01*
X-16494287Y1815181D02*
X-17065715Y815181D01*
X-17065715Y815181D02*
X-17065715Y1815181D01*
X-17541906Y815181D02*
X-17541906Y1815181D01*
X-17541906Y1815181D02*
X-17780001Y1815181D01*
X-17780001Y1815181D02*
X-17922858Y1767562D01*
X-17922858Y1767562D02*
X-18018096Y1672324D01*
X-18018096Y1672324D02*
X-18065715Y1577086D01*
X-18065715Y1577086D02*
X-18113334Y1386610D01*
X-18113334Y1386610D02*
X-18113334Y1243753D01*
X-18113334Y1243753D02*
X-18065715Y1053277D01*
X-18065715Y1053277D02*
X-18018096Y958039D01*
X-18018096Y958039D02*
X-17922858Y862800D01*
X-17922858Y862800D02*
X-17780001Y815181D01*
X-17780001Y815181D02*
X-17541906Y815181D01*
%TO.C,P2*%
X-16232381Y3355181D02*
X-15899048Y3831372D01*
X-15660953Y3355181D02*
X-15660953Y4355181D01*
X-15660953Y4355181D02*
X-16041905Y4355181D01*
X-16041905Y4355181D02*
X-16137143Y4307562D01*
X-16137143Y4307562D02*
X-16184762Y4259943D01*
X-16184762Y4259943D02*
X-16232381Y4164705D01*
X-16232381Y4164705D02*
X-16232381Y4021848D01*
X-16232381Y4021848D02*
X-16184762Y3926610D01*
X-16184762Y3926610D02*
X-16137143Y3878991D01*
X-16137143Y3878991D02*
X-16041905Y3831372D01*
X-16041905Y3831372D02*
X-15660953Y3831372D01*
X-16613334Y3402800D02*
X-16756191Y3355181D01*
X-16756191Y3355181D02*
X-16994286Y3355181D01*
X-16994286Y3355181D02*
X-17089524Y3402800D01*
X-17089524Y3402800D02*
X-17137143Y3450420D01*
X-17137143Y3450420D02*
X-17184762Y3545658D01*
X-17184762Y3545658D02*
X-17184762Y3640896D01*
X-17184762Y3640896D02*
X-17137143Y3736134D01*
X-17137143Y3736134D02*
X-17089524Y3783753D01*
X-17089524Y3783753D02*
X-16994286Y3831372D01*
X-16994286Y3831372D02*
X-16803810Y3878991D01*
X-16803810Y3878991D02*
X-16708572Y3926610D01*
X-16708572Y3926610D02*
X-16660953Y3974229D01*
X-16660953Y3974229D02*
X-16613334Y4069467D01*
X-16613334Y4069467D02*
X-16613334Y4164705D01*
X-16613334Y4164705D02*
X-16660953Y4259943D01*
X-16660953Y4259943D02*
X-16708572Y4307562D01*
X-16708572Y4307562D02*
X-16803810Y4355181D01*
X-16803810Y4355181D02*
X-17041905Y4355181D01*
X-17041905Y4355181D02*
X-17184762Y4307562D01*
X-17470477Y4355181D02*
X-18041905Y4355181D01*
X-17756191Y3355181D02*
X-17756191Y4355181D01*
%TO.C,P1*%
X-15343453Y6418991D02*
X-15486310Y6371372D01*
X-15486310Y6371372D02*
X-15533929Y6323753D01*
X-15533929Y6323753D02*
X-15581548Y6228515D01*
X-15581548Y6228515D02*
X-15581548Y6085658D01*
X-15581548Y6085658D02*
X-15533929Y5990420D01*
X-15533929Y5990420D02*
X-15486310Y5942800D01*
X-15486310Y5942800D02*
X-15391072Y5895181D01*
X-15391072Y5895181D02*
X-15010120Y5895181D01*
X-15010120Y5895181D02*
X-15010120Y6895181D01*
X-15010120Y6895181D02*
X-15343453Y6895181D01*
X-15343453Y6895181D02*
X-15438691Y6847562D01*
X-15438691Y6847562D02*
X-15486310Y6799943D01*
X-15486310Y6799943D02*
X-15533929Y6704705D01*
X-15533929Y6704705D02*
X-15533929Y6609467D01*
X-15533929Y6609467D02*
X-15486310Y6514229D01*
X-15486310Y6514229D02*
X-15438691Y6466610D01*
X-15438691Y6466610D02*
X-15343453Y6418991D01*
X-15343453Y6418991D02*
X-15010120Y6418991D01*
X-16152977Y5895181D02*
X-16057739Y5942800D01*
X-16057739Y5942800D02*
X-16010120Y5990420D01*
X-16010120Y5990420D02*
X-15962501Y6085658D01*
X-15962501Y6085658D02*
X-15962501Y6371372D01*
X-15962501Y6371372D02*
X-16010120Y6466610D01*
X-16010120Y6466610D02*
X-16057739Y6514229D01*
X-16057739Y6514229D02*
X-16152977Y6561848D01*
X-16152977Y6561848D02*
X-16295834Y6561848D01*
X-16295834Y6561848D02*
X-16391072Y6514229D01*
X-16391072Y6514229D02*
X-16438691Y6466610D01*
X-16438691Y6466610D02*
X-16486310Y6371372D01*
X-16486310Y6371372D02*
X-16486310Y6085658D01*
X-16486310Y6085658D02*
X-16438691Y5990420D01*
X-16438691Y5990420D02*
X-16391072Y5942800D01*
X-16391072Y5942800D02*
X-16295834Y5895181D01*
X-16295834Y5895181D02*
X-16152977Y5895181D01*
X-17057739Y5895181D02*
X-16962501Y5942800D01*
X-16962501Y5942800D02*
X-16914882Y5990420D01*
X-16914882Y5990420D02*
X-16867263Y6085658D01*
X-16867263Y6085658D02*
X-16867263Y6371372D01*
X-16867263Y6371372D02*
X-16914882Y6466610D01*
X-16914882Y6466610D02*
X-16962501Y6514229D01*
X-16962501Y6514229D02*
X-17057739Y6561848D01*
X-17057739Y6561848D02*
X-17200596Y6561848D01*
X-17200596Y6561848D02*
X-17295834Y6514229D01*
X-17295834Y6514229D02*
X-17343453Y6466610D01*
X-17343453Y6466610D02*
X-17391072Y6371372D01*
X-17391072Y6371372D02*
X-17391072Y6085658D01*
X-17391072Y6085658D02*
X-17343453Y5990420D01*
X-17343453Y5990420D02*
X-17295834Y5942800D01*
X-17295834Y5942800D02*
X-17200596Y5895181D01*
X-17200596Y5895181D02*
X-17057739Y5895181D01*
X-17676787Y6561848D02*
X-18057739Y6561848D01*
X-17819644Y6895181D02*
X-17819644Y6038039D01*
X-17819644Y6038039D02*
X-17867263Y5942800D01*
X-17867263Y5942800D02*
X-17962501Y5895181D01*
X-17962501Y5895181D02*
X-18057739Y5895181D01*
%TD*%
%LPC*%
D11*
X8500000Y8000000D02*
X8500000Y-8000000D01*
D12*
%TO.C,CN4*%
X6715000Y-5715000D03*
%TD*%
D13*
%TO.C,CN3*%
X6715000Y-1905000D03*
%TD*%
%TO.C,CN2*%
X6715000Y1905000D03*
%TD*%
%TO.C,CN1*%
X6715000Y5715000D03*
%TD*%
D14*
%TO.C,P6*%
X-19620000Y-6350000D03*
%TD*%
%TO.C,P5*%
X-19620000Y-3810000D03*
%TD*%
%TO.C,P4*%
X-19620000Y-1270000D03*
%TD*%
%TO.C,P3*%
X-19620000Y1270000D03*
%TD*%
%TO.C,P2*%
X-19620000Y3810000D03*
%TD*%
%TO.C,P1*%
X-19620000Y6350000D03*
%TD*%
D15*
X18780000Y-5500000D03*
X18780000Y5500000D03*
D16*
X-4080000Y4445000D03*
X4810000Y4434475D03*
X-4080000Y-635000D03*
X-11065000Y-1905000D03*
X-13922500Y7302500D03*
X-10112500Y2222500D03*
X-16462500Y5397500D03*
X-9160000Y952500D03*
X-9160000Y-635000D03*
X682500Y-4445000D03*
X682500Y-5715000D03*
%LPD*%
M02*
