%TF.GenerationSoftware,KiCad,Pcbnew,7.0.5*%
%TF.CreationDate,2023-10-06T16:43:15+02:00*%
%TF.ProjectId,USBTTLPGM_00,55534254-544c-4504-974d-5f30302e6b69,00*%
%TF.SameCoordinates,PX8b8aa80PY5faea10*%
%TF.FileFunction,Paste,Top*%
%TF.FilePolarity,Positive*%
%FSLAX46Y46*%
G04 Gerber Fmt 4.6, Leading zero omitted, Abs format (unit mm)*
G04 Created by KiCad (PCBNEW 7.0.5) date 2023-10-06 16:43:15*
%MOMM*%
%LPD*%
G01*
G04 APERTURE LIST*
G04 Aperture macros list*
%AMRoundRect*
0 Rectangle with rounded corners*
0 $1 Rounding radius*
0 $2 $3 $4 $5 $6 $7 $8 $9 X,Y pos of 4 corners*
0 Add a 4 corners polygon primitive as box body*
4,1,4,$2,$3,$4,$5,$6,$7,$8,$9,$2,$3,0*
0 Add four circle primitives for the rounded corners*
1,1,$1+$1,$2,$3*
1,1,$1+$1,$4,$5*
1,1,$1+$1,$6,$7*
1,1,$1+$1,$8,$9*
0 Add four rect primitives between the rounded corners*
20,1,$1+$1,$2,$3,$4,$5,0*
20,1,$1+$1,$4,$5,$6,$7,0*
20,1,$1+$1,$6,$7,$8,$9,0*
20,1,$1+$1,$8,$9,$2,$3,0*%
G04 Aperture macros list end*
%ADD10RoundRect,0.250000X-0.250000X-0.475000X0.250000X-0.475000X0.250000X0.475000X-0.250000X0.475000X0*%
%ADD11RoundRect,0.250000X0.250000X0.475000X-0.250000X0.475000X-0.250000X-0.475000X0.250000X-0.475000X0*%
%ADD12RoundRect,0.317500X0.952500X0.000000X-0.952500X0.000000X-0.952500X0.000000X0.952500X0.000000X0*%
%ADD13RoundRect,0.150000X0.400000X0.150000X-0.400000X0.150000X-0.400000X-0.150000X0.400000X-0.150000X0*%
%ADD14RoundRect,0.325000X0.325000X-0.450000X0.325000X0.450000X-0.325000X0.450000X-0.325000X-0.450000X0*%
%ADD15RoundRect,0.325000X-0.325000X-0.525000X0.325000X-0.525000X0.325000X0.525000X-0.325000X0.525000X0*%
G04 APERTURE END LIST*
D10*
%TO.C,LD5*%
X-590000Y6350000D03*
X-2490000Y6350000D03*
%TD*%
%TO.C,LD4*%
X-15830000Y-1270000D03*
X-17730000Y-1270000D03*
%TD*%
D11*
%TO.C,LD2*%
X-6935000Y-6350000D03*
X-5035000Y-6350000D03*
%TD*%
D10*
%TO.C,LD1*%
X-15830000Y3810000D03*
X-17730000Y3810000D03*
%TD*%
D12*
%TO.C,IC2*%
X-2098800Y-6985000D03*
X-2098800Y-5715000D03*
X-2098800Y-4445000D03*
X-2098800Y-3175000D03*
X-2098800Y-1905000D03*
X-2098800Y-635000D03*
X-2098800Y635000D03*
X-2098800Y1905000D03*
X2828800Y1905000D03*
X2828800Y635000D03*
X2828800Y-635000D03*
X2828800Y-1905000D03*
X2828800Y-3175000D03*
X2828800Y-4445000D03*
X2828800Y-5715000D03*
X2828800Y-6985000D03*
%TD*%
D13*
%TO.C,IC1*%
X970000Y4130000D03*
X970000Y6030000D03*
X3570000Y6030000D03*
X3570000Y5080000D03*
X3570000Y4130000D03*
%TD*%
D10*
%TO.C,C2*%
X-14555000Y1270000D03*
X-12655000Y1270000D03*
%TD*%
D11*
%TO.C,C1*%
X-590000Y4445000D03*
X-2490000Y4445000D03*
%TD*%
D14*
%TO.C,SW1*%
X-10140000Y-3975000D03*
X-5640000Y-3975000D03*
X-10140000Y3975000D03*
X-5640000Y3975000D03*
%TD*%
D10*
%TO.C,R10*%
X-6935000Y6350000D03*
X-5035000Y6350000D03*
%TD*%
%TO.C,R9*%
X-12655000Y-1270000D03*
X-14555000Y-1270000D03*
%TD*%
%TO.C,R8*%
X-12655000Y-3810000D03*
X-14555000Y-3810000D03*
%TD*%
D11*
%TO.C,R5*%
X-14555000Y6350000D03*
X-12655000Y6350000D03*
%TD*%
%TO.C,R4*%
X-15830000Y6350000D03*
X-17730000Y6350000D03*
%TD*%
%TO.C,R3*%
X-8845000Y-6350000D03*
X-10745000Y-6350000D03*
%TD*%
D10*
%TO.C,R2*%
X-14555000Y3810000D03*
X-12655000Y3810000D03*
%TD*%
D11*
%TO.C,R1*%
X-8845000Y6350000D03*
X-10745000Y6350000D03*
%TD*%
D10*
%TO.C,LD3*%
X-15830000Y-3810000D03*
X-17730000Y-3810000D03*
%TD*%
D15*
%TO.C,D1*%
X-17260000Y-6350000D03*
X-13760000Y-6350000D03*
%TD*%
M02*
