%TF.GenerationSoftware,KiCad,Pcbnew,7.0.5*%
%TF.CreationDate,2023-10-06T16:43:15+02:00*%
%TF.ProjectId,USBTTLPGM_00,55534254-544c-4504-974d-5f30302e6b69,00*%
%TF.SameCoordinates,PX8b8aa80PY5faea10*%
%TF.FileFunction,Legend,Top*%
%TF.FilePolarity,Positive*%
%FSLAX46Y46*%
G04 Gerber Fmt 4.6, Leading zero omitted, Abs format (unit mm)*
G04 Created by KiCad (PCBNEW 7.0.5) date 2023-10-06 16:43:15*
%MOMM*%
%LPD*%
G01*
G04 APERTURE LIST*
G04 Aperture macros list*
%AMRoundRect*
0 Rectangle with rounded corners*
0 $1 Rounding radius*
0 $2 $3 $4 $5 $6 $7 $8 $9 X,Y pos of 4 corners*
0 Add a 4 corners polygon primitive as box body*
4,1,4,$2,$3,$4,$5,$6,$7,$8,$9,$2,$3,0*
0 Add four circle primitives for the rounded corners*
1,1,$1+$1,$2,$3*
1,1,$1+$1,$4,$5*
1,1,$1+$1,$6,$7*
1,1,$1+$1,$8,$9*
0 Add four rect primitives between the rounded corners*
20,1,$1+$1,$2,$3,$4,$5,0*
20,1,$1+$1,$4,$5,$6,$7,0*
20,1,$1+$1,$6,$7,$8,$9,0*
20,1,$1+$1,$8,$9,$2,$3,0*%
G04 Aperture macros list end*
%ADD10C,0.125000*%
%ADD11C,0.203200*%
%ADD12C,0.100000*%
%ADD13RoundRect,0.750000X-0.750000X-0.750000X0.750000X-0.750000X0.750000X0.750000X-0.750000X0.750000X0*%
%ADD14RoundRect,0.500000X-0.500000X-0.500000X0.500000X-0.500000X0.500000X0.500000X-0.500000X0.500000X0*%
%ADD15RoundRect,0.250000X-0.250000X-0.475000X0.250000X-0.475000X0.250000X0.475000X-0.250000X0.475000X0*%
%ADD16RoundRect,0.250000X0.250000X0.475000X-0.250000X0.475000X-0.250000X-0.475000X0.250000X-0.475000X0*%
%ADD17RoundRect,0.317500X0.952500X0.000000X-0.952500X0.000000X-0.952500X0.000000X0.952500X0.000000X0*%
%ADD18RoundRect,0.150000X0.400000X0.150000X-0.400000X0.150000X-0.400000X-0.150000X0.400000X-0.150000X0*%
%ADD19RoundRect,0.325000X0.325000X-0.450000X0.325000X0.450000X-0.325000X0.450000X-0.325000X-0.450000X0*%
%ADD20RoundRect,0.437500X0.812500X0.437500X-0.812500X0.437500X-0.812500X-0.437500X0.812500X-0.437500X0*%
%ADD21RoundRect,0.325000X-0.325000X-0.525000X0.325000X-0.525000X0.325000X0.525000X-0.325000X0.525000X0*%
%ADD22C,3.200000*%
%ADD23C,0.900000*%
G04 APERTURE END LIST*
D10*
%TO.C,CN4*%
X4364190Y-4190952D02*
X4326095Y-4238571D01*
X4326095Y-4238571D02*
X4326095Y-4310000D01*
X4326095Y-4310000D02*
X4364190Y-4381428D01*
X4364190Y-4381428D02*
X4440380Y-4429047D01*
X4440380Y-4429047D02*
X4516571Y-4452857D01*
X4516571Y-4452857D02*
X4668952Y-4476666D01*
X4668952Y-4476666D02*
X4783238Y-4476666D01*
X4783238Y-4476666D02*
X4935619Y-4452857D01*
X4935619Y-4452857D02*
X5011809Y-4429047D01*
X5011809Y-4429047D02*
X5088000Y-4381428D01*
X5088000Y-4381428D02*
X5126095Y-4310000D01*
X5126095Y-4310000D02*
X5126095Y-4262381D01*
X5126095Y-4262381D02*
X5088000Y-4190952D01*
X5088000Y-4190952D02*
X5049904Y-4167143D01*
X5049904Y-4167143D02*
X4783238Y-4167143D01*
X4783238Y-4167143D02*
X4783238Y-4262381D01*
X5126095Y-3952857D02*
X4326095Y-3952857D01*
X4326095Y-3952857D02*
X5126095Y-3667143D01*
X5126095Y-3667143D02*
X4326095Y-3667143D01*
X5126095Y-3429047D02*
X4326095Y-3429047D01*
X4326095Y-3429047D02*
X4326095Y-3309999D01*
X4326095Y-3309999D02*
X4364190Y-3238571D01*
X4364190Y-3238571D02*
X4440380Y-3190952D01*
X4440380Y-3190952D02*
X4516571Y-3167142D01*
X4516571Y-3167142D02*
X4668952Y-3143333D01*
X4668952Y-3143333D02*
X4783238Y-3143333D01*
X4783238Y-3143333D02*
X4935619Y-3167142D01*
X4935619Y-3167142D02*
X5011809Y-3190952D01*
X5011809Y-3190952D02*
X5088000Y-3238571D01*
X5088000Y-3238571D02*
X5126095Y-3309999D01*
X5126095Y-3309999D02*
X5126095Y-3429047D01*
%TO.C,CN3*%
X5173595Y-2027976D02*
X4373595Y-2027976D01*
X4373595Y-2027976D02*
X4373595Y-1908928D01*
X4373595Y-1908928D02*
X4411690Y-1837500D01*
X4411690Y-1837500D02*
X4487880Y-1789881D01*
X4487880Y-1789881D02*
X4564071Y-1766071D01*
X4564071Y-1766071D02*
X4716452Y-1742262D01*
X4716452Y-1742262D02*
X4830738Y-1742262D01*
X4830738Y-1742262D02*
X4983119Y-1766071D01*
X4983119Y-1766071D02*
X5059309Y-1789881D01*
X5059309Y-1789881D02*
X5135500Y-1837500D01*
X5135500Y-1837500D02*
X5173595Y-1908928D01*
X5173595Y-1908928D02*
X5173595Y-2027976D01*
X4868833Y-1527976D02*
X4868833Y-1147024D01*
X5173595Y-1337500D02*
X4564071Y-1337500D01*
%TO.C,CN2*%
X5173595Y1464524D02*
X4373595Y1464524D01*
X4373595Y1464524D02*
X4373595Y1583572D01*
X4373595Y1583572D02*
X4411690Y1655000D01*
X4411690Y1655000D02*
X4487880Y1702619D01*
X4487880Y1702619D02*
X4564071Y1726429D01*
X4564071Y1726429D02*
X4716452Y1750238D01*
X4716452Y1750238D02*
X4830738Y1750238D01*
X4830738Y1750238D02*
X4983119Y1726429D01*
X4983119Y1726429D02*
X5059309Y1702619D01*
X5059309Y1702619D02*
X5135500Y1655000D01*
X5135500Y1655000D02*
X5173595Y1583572D01*
X5173595Y1583572D02*
X5173595Y1464524D01*
X4868833Y1964524D02*
X4868833Y2345476D01*
%TO.C,CN1*%
X4868833Y5072144D02*
X4868833Y5453096D01*
X5173595Y5262620D02*
X4564071Y5262620D01*
X4373595Y5929287D02*
X4373595Y5691192D01*
X4373595Y5691192D02*
X4754547Y5667383D01*
X4754547Y5667383D02*
X4716452Y5691192D01*
X4716452Y5691192D02*
X4678357Y5738811D01*
X4678357Y5738811D02*
X4678357Y5857859D01*
X4678357Y5857859D02*
X4716452Y5905478D01*
X4716452Y5905478D02*
X4754547Y5929287D01*
X4754547Y5929287D02*
X4830738Y5953097D01*
X4830738Y5953097D02*
X5021214Y5953097D01*
X5021214Y5953097D02*
X5097404Y5929287D01*
X5097404Y5929287D02*
X5135500Y5905478D01*
X5135500Y5905478D02*
X5173595Y5857859D01*
X5173595Y5857859D02*
X5173595Y5738811D01*
X5173595Y5738811D02*
X5135500Y5691192D01*
X5135500Y5691192D02*
X5097404Y5667383D01*
X4373595Y6095954D02*
X5173595Y6262620D01*
X5173595Y6262620D02*
X4373595Y6429287D01*
%TO.C,LD5*%
X-3398905Y5678572D02*
X-4198905Y5778572D01*
X-4198905Y5778572D02*
X-4198905Y5969048D01*
X-4198905Y5969048D02*
X-4160810Y6011906D01*
X-4160810Y6011906D02*
X-4122715Y6030953D01*
X-4122715Y6030953D02*
X-4046524Y6045239D01*
X-4046524Y6045239D02*
X-3932239Y6030953D01*
X-3932239Y6030953D02*
X-3856048Y5997620D01*
X-3856048Y5997620D02*
X-3817953Y5969048D01*
X-3817953Y5969048D02*
X-3779858Y5916667D01*
X-3779858Y5916667D02*
X-3779858Y5726191D01*
X-4198905Y6230953D02*
X-3398905Y6250001D01*
X-3398905Y6250001D02*
X-3970334Y6416667D01*
X-3970334Y6416667D02*
X-3398905Y6440477D01*
X-3398905Y6440477D02*
X-4198905Y6659525D01*
X-3398905Y7035715D02*
X-3779858Y6916668D01*
X-3398905Y6750001D02*
X-4198905Y6850001D01*
X-4198905Y6850001D02*
X-4198905Y7040477D01*
X-4198905Y7040477D02*
X-4160810Y7083335D01*
X-4160810Y7083335D02*
X-4122715Y7102382D01*
X-4122715Y7102382D02*
X-4046524Y7116668D01*
X-4046524Y7116668D02*
X-3932239Y7102382D01*
X-3932239Y7102382D02*
X-3856048Y7069049D01*
X-3856048Y7069049D02*
X-3817953Y7040477D01*
X-3817953Y7040477D02*
X-3779858Y6988096D01*
X-3779858Y6988096D02*
X-3779858Y6797620D01*
%TO.C,LD4*%
X-15879881Y-363595D02*
X-15998929Y17358D01*
X-16165596Y-363595D02*
X-16065596Y436405D01*
X-16065596Y436405D02*
X-15875120Y436405D01*
X-15875120Y436405D02*
X-15832262Y398310D01*
X-15832262Y398310D02*
X-15813215Y360215D01*
X-15813215Y360215D02*
X-15798929Y284024D01*
X-15798929Y284024D02*
X-15813215Y169739D01*
X-15813215Y169739D02*
X-15846548Y93548D01*
X-15846548Y93548D02*
X-15875120Y55453D01*
X-15875120Y55453D02*
X-15927501Y17358D01*
X-15927501Y17358D02*
X-16117977Y17358D01*
X-15713215Y-363595D02*
X-15384643Y169739D01*
X-15646548Y169739D02*
X-15451310Y-363595D01*
%TO.C,LD2*%
X-7885953Y-5024547D02*
X-7819286Y-5062642D01*
X-7819286Y-5062642D02*
X-7800239Y-5100738D01*
X-7800239Y-5100738D02*
X-7785953Y-5176928D01*
X-7785953Y-5176928D02*
X-7800239Y-5291214D01*
X-7800239Y-5291214D02*
X-7833572Y-5367404D01*
X-7833572Y-5367404D02*
X-7862144Y-5405500D01*
X-7862144Y-5405500D02*
X-7914525Y-5443595D01*
X-7914525Y-5443595D02*
X-8105001Y-5443595D01*
X-8105001Y-5443595D02*
X-8005001Y-4643595D01*
X-8005001Y-4643595D02*
X-7838334Y-4643595D01*
X-7838334Y-4643595D02*
X-7795477Y-4681690D01*
X-7795477Y-4681690D02*
X-7776429Y-4719785D01*
X-7776429Y-4719785D02*
X-7762144Y-4795976D01*
X-7762144Y-4795976D02*
X-7771667Y-4872166D01*
X-7771667Y-4872166D02*
X-7805001Y-4948357D01*
X-7805001Y-4948357D02*
X-7833572Y-4986452D01*
X-7833572Y-4986452D02*
X-7885953Y-5024547D01*
X-7885953Y-5024547D02*
X-8052620Y-5024547D01*
X-7409763Y-4643595D02*
X-7314525Y-4643595D01*
X-7314525Y-4643595D02*
X-7271667Y-4681690D01*
X-7271667Y-4681690D02*
X-7233572Y-4757880D01*
X-7233572Y-4757880D02*
X-7228810Y-4910261D01*
X-7228810Y-4910261D02*
X-7262144Y-5176928D01*
X-7262144Y-5176928D02*
X-7305001Y-5329309D01*
X-7305001Y-5329309D02*
X-7362144Y-5405500D01*
X-7362144Y-5405500D02*
X-7414525Y-5443595D01*
X-7414525Y-5443595D02*
X-7509763Y-5443595D01*
X-7509763Y-5443595D02*
X-7552620Y-5405500D01*
X-7552620Y-5405500D02*
X-7590715Y-5329309D01*
X-7590715Y-5329309D02*
X-7595477Y-5176928D01*
X-7595477Y-5176928D02*
X-7562144Y-4910261D01*
X-7562144Y-4910261D02*
X-7519286Y-4757880D01*
X-7519286Y-4757880D02*
X-7462144Y-4681690D01*
X-7462144Y-4681690D02*
X-7409763Y-4643595D01*
X-6885953Y-4643595D02*
X-6790715Y-4643595D01*
X-6790715Y-4643595D02*
X-6747857Y-4681690D01*
X-6747857Y-4681690D02*
X-6709762Y-4757880D01*
X-6709762Y-4757880D02*
X-6705000Y-4910261D01*
X-6705000Y-4910261D02*
X-6738334Y-5176928D01*
X-6738334Y-5176928D02*
X-6781191Y-5329309D01*
X-6781191Y-5329309D02*
X-6838334Y-5405500D01*
X-6838334Y-5405500D02*
X-6890715Y-5443595D01*
X-6890715Y-5443595D02*
X-6985953Y-5443595D01*
X-6985953Y-5443595D02*
X-7028810Y-5405500D01*
X-7028810Y-5405500D02*
X-7066905Y-5329309D01*
X-7066905Y-5329309D02*
X-7071667Y-5176928D01*
X-7071667Y-5176928D02*
X-7038334Y-4910261D01*
X-7038334Y-4910261D02*
X-6995476Y-4757880D01*
X-6995476Y-4757880D02*
X-6938334Y-4681690D01*
X-6938334Y-4681690D02*
X-6885953Y-4643595D01*
X-6528809Y-4643595D02*
X-6243095Y-4643595D01*
X-6485952Y-5443595D02*
X-6385952Y-4643595D01*
%TO.C,LD1*%
X-16423571Y2176405D02*
X-16542619Y2557358D01*
X-16709286Y2176405D02*
X-16609286Y2976405D01*
X-16609286Y2976405D02*
X-16418810Y2976405D01*
X-16418810Y2976405D02*
X-16375952Y2938310D01*
X-16375952Y2938310D02*
X-16356905Y2900215D01*
X-16356905Y2900215D02*
X-16342619Y2824024D01*
X-16342619Y2824024D02*
X-16356905Y2709739D01*
X-16356905Y2709739D02*
X-16390238Y2633548D01*
X-16390238Y2633548D02*
X-16418810Y2595453D01*
X-16418810Y2595453D02*
X-16471191Y2557358D01*
X-16471191Y2557358D02*
X-16661667Y2557358D01*
X-16228333Y2214500D02*
X-16161667Y2176405D01*
X-16161667Y2176405D02*
X-16042619Y2176405D01*
X-16042619Y2176405D02*
X-15990238Y2214500D01*
X-15990238Y2214500D02*
X-15961667Y2252596D01*
X-15961667Y2252596D02*
X-15928333Y2328786D01*
X-15928333Y2328786D02*
X-15918810Y2404977D01*
X-15918810Y2404977D02*
X-15933095Y2481167D01*
X-15933095Y2481167D02*
X-15952143Y2519262D01*
X-15952143Y2519262D02*
X-15995000Y2557358D01*
X-15995000Y2557358D02*
X-16085476Y2595453D01*
X-16085476Y2595453D02*
X-16128333Y2633548D01*
X-16128333Y2633548D02*
X-16147381Y2671643D01*
X-16147381Y2671643D02*
X-16161667Y2747834D01*
X-16161667Y2747834D02*
X-16152143Y2824024D01*
X-16152143Y2824024D02*
X-16118810Y2900215D01*
X-16118810Y2900215D02*
X-16090238Y2938310D01*
X-16090238Y2938310D02*
X-16037857Y2976405D01*
X-16037857Y2976405D02*
X-15918810Y2976405D01*
X-15918810Y2976405D02*
X-15852143Y2938310D01*
X-15704524Y2976405D02*
X-15418810Y2976405D01*
X-15661667Y2176405D02*
X-15561667Y2976405D01*
%TO.C,C1*%
X237976Y3551334D02*
X-142976Y3551334D01*
X47500Y3856096D02*
X47500Y3246572D01*
%TO.C,SW1*%
X-3754500Y920835D02*
X-3716405Y992263D01*
X-3716405Y992263D02*
X-3716405Y1111311D01*
X-3716405Y1111311D02*
X-3754500Y1158930D01*
X-3754500Y1158930D02*
X-3792596Y1182739D01*
X-3792596Y1182739D02*
X-3868786Y1206549D01*
X-3868786Y1206549D02*
X-3944977Y1206549D01*
X-3944977Y1206549D02*
X-4021167Y1182739D01*
X-4021167Y1182739D02*
X-4059262Y1158930D01*
X-4059262Y1158930D02*
X-4097358Y1111311D01*
X-4097358Y1111311D02*
X-4135453Y1016073D01*
X-4135453Y1016073D02*
X-4173548Y968454D01*
X-4173548Y968454D02*
X-4211643Y944644D01*
X-4211643Y944644D02*
X-4287834Y920835D01*
X-4287834Y920835D02*
X-4364024Y920835D01*
X-4364024Y920835D02*
X-4440215Y944644D01*
X-4440215Y944644D02*
X-4478310Y968454D01*
X-4478310Y968454D02*
X-4516405Y1016073D01*
X-4516405Y1016073D02*
X-4516405Y1135120D01*
X-4516405Y1135120D02*
X-4478310Y1206549D01*
X-4516405Y1373215D02*
X-3716405Y1492263D01*
X-3716405Y1492263D02*
X-4287834Y1587501D01*
X-4287834Y1587501D02*
X-3716405Y1682739D01*
X-3716405Y1682739D02*
X-4516405Y1801786D01*
X-3716405Y2254168D02*
X-3716405Y1968454D01*
X-3716405Y2111311D02*
X-4516405Y2111311D01*
X-4516405Y2111311D02*
X-4402120Y2063692D01*
X-4402120Y2063692D02*
X-4325929Y2016073D01*
X-4325929Y2016073D02*
X-4287834Y1968454D01*
%TO.C,P1*%
X-19689048Y4716405D02*
X-19689048Y5516405D01*
X-19689048Y5516405D02*
X-19498572Y5516405D01*
X-19498572Y5516405D02*
X-19450953Y5478310D01*
X-19450953Y5478310D02*
X-19427143Y5440215D01*
X-19427143Y5440215D02*
X-19403334Y5364024D01*
X-19403334Y5364024D02*
X-19403334Y5249739D01*
X-19403334Y5249739D02*
X-19427143Y5173548D01*
X-19427143Y5173548D02*
X-19450953Y5135453D01*
X-19450953Y5135453D02*
X-19498572Y5097358D01*
X-19498572Y5097358D02*
X-19689048Y5097358D01*
X-18927143Y4716405D02*
X-19212857Y4716405D01*
X-19070000Y4716405D02*
X-19070000Y5516405D01*
X-19070000Y5516405D02*
X-19117619Y5402120D01*
X-19117619Y5402120D02*
X-19165238Y5325929D01*
X-19165238Y5325929D02*
X-19212857Y5287834D01*
%TO.C,LD3*%
X-16395000Y-4643595D02*
X-16109286Y-4643595D01*
X-16352143Y-5443595D02*
X-16252143Y-4643595D01*
X-16090239Y-5443595D02*
X-15761667Y-4910261D01*
X-16023572Y-4910261D02*
X-15828334Y-5443595D01*
D11*
%TO.C,CN4*%
X5615000Y-4865000D02*
X5615000Y-4615000D01*
X5615000Y-6565000D02*
X5615000Y-6815000D01*
X5865000Y-4615000D02*
X5615000Y-4615000D01*
X5865000Y-6815000D02*
X5615000Y-6815000D01*
X7565000Y-4615000D02*
X7815000Y-4615000D01*
X7565000Y-6815000D02*
X7815000Y-6815000D01*
X7815000Y-4865000D02*
X7815000Y-4615000D01*
X7815000Y-6565000D02*
X7815000Y-6815000D01*
%TO.C,CN3*%
X5615000Y-1055000D02*
X5615000Y-805000D01*
X5615000Y-2755000D02*
X5615000Y-3005000D01*
X5865000Y-805000D02*
X5615000Y-805000D01*
X5865000Y-3005000D02*
X5615000Y-3005000D01*
X7565000Y-805000D02*
X7815000Y-805000D01*
X7565000Y-3005000D02*
X7815000Y-3005000D01*
X7815000Y-1055000D02*
X7815000Y-805000D01*
X7815000Y-2755000D02*
X7815000Y-3005000D01*
%TO.C,CN2*%
X7815000Y1055000D02*
X7815000Y805000D01*
X7815000Y2755000D02*
X7815000Y3005000D01*
X7565000Y805000D02*
X7815000Y805000D01*
X7565000Y3005000D02*
X7815000Y3005000D01*
X5865000Y805000D02*
X5615000Y805000D01*
X5865000Y3005000D02*
X5615000Y3005000D01*
X5615000Y1055000D02*
X5615000Y805000D01*
X5615000Y2755000D02*
X5615000Y3005000D01*
%TO.C,CN1*%
X7815000Y4865000D02*
X7815000Y4615000D01*
X7815000Y6565000D02*
X7815000Y6815000D01*
X7565000Y4615000D02*
X7815000Y4615000D01*
X7565000Y6815000D02*
X7815000Y6815000D01*
X5865000Y4615000D02*
X5615000Y4615000D01*
X5865000Y6815000D02*
X5615000Y6815000D01*
X5615000Y4865000D02*
X5615000Y4615000D01*
X5615000Y6565000D02*
X5615000Y6815000D01*
%TO.C,LD5*%
X-1801252Y6990000D02*
X-1278748Y6990000D01*
X-1801252Y5710000D02*
X-1278748Y5710000D01*
%TO.C,LD4*%
X-17041252Y-630000D02*
X-16518748Y-630000D01*
X-17041252Y-1910000D02*
X-16518748Y-1910000D01*
%TO.C,LD2*%
X-5723748Y-6990000D02*
X-6246252Y-6990000D01*
X-5723748Y-5710000D02*
X-6246252Y-5710000D01*
%TO.C,LD1*%
X-17041252Y4450000D02*
X-16518748Y4450000D01*
X-17041252Y3170000D02*
X-16518748Y3170000D01*
%TO.C,IC2*%
X365000Y2540000D02*
X-1540000Y2540000D01*
X365000Y2540000D02*
X2270000Y2540000D01*
X407500Y-7620000D02*
X-1540000Y-7620000D01*
X407500Y-7620000D02*
X3857500Y-7620000D01*
%TO.C,IC1*%
X1477520Y6667500D02*
X2270000Y6667500D01*
X1477520Y6477000D02*
X1477520Y6667500D01*
X1477520Y4699000D02*
X1477520Y5461000D01*
X1477520Y3492500D02*
X1477520Y3683000D01*
X1477520Y3492500D02*
X2518920Y3492500D01*
X2518920Y3492500D02*
X3857500Y3492500D01*
X3062480Y6667500D02*
X2270000Y6667500D01*
X3062480Y6477000D02*
X3062480Y6667500D01*
%TO.C,C2*%
X-13866252Y1910000D02*
X-13343748Y1910000D01*
X-13866252Y630000D02*
X-13343748Y630000D01*
%TO.C,C1*%
X-1278748Y3805000D02*
X-1801252Y3805000D01*
X-1278748Y5085000D02*
X-1801252Y5085000D01*
%TO.C,SW1*%
X-9160000Y-3175000D02*
X-6620000Y-3175000D01*
X-11065000Y-2540000D02*
X-11065000Y2540000D01*
X-4715000Y-2540000D02*
X-4715000Y2540000D01*
X-6620000Y3175000D02*
X-9160000Y3175000D01*
%TO.C,R10*%
X-6246252Y6990000D02*
X-5723748Y6990000D01*
X-6246252Y5710000D02*
X-5723748Y5710000D01*
%TO.C,R9*%
X-13866252Y-1910000D02*
X-13343748Y-1910000D01*
X-13866252Y-630000D02*
X-13343748Y-630000D01*
%TO.C,R8*%
X-13866252Y-4450000D02*
X-13343748Y-4450000D01*
X-13866252Y-3170000D02*
X-13343748Y-3170000D01*
%TO.C,R5*%
X-13343748Y6990000D02*
X-13866252Y6990000D01*
X-13343748Y5710000D02*
X-13866252Y5710000D01*
%TO.C,R4*%
X-16518748Y5710000D02*
X-17041252Y5710000D01*
X-16518748Y6990000D02*
X-17041252Y6990000D01*
%TO.C,R3*%
X-9533748Y-6990000D02*
X-10056252Y-6990000D01*
X-9533748Y-5710000D02*
X-10056252Y-5710000D01*
%TO.C,R2*%
X-13866252Y4450000D02*
X-13343748Y4450000D01*
X-13866252Y3170000D02*
X-13343748Y3170000D01*
%TO.C,R1*%
X-9533748Y5710000D02*
X-10056252Y5710000D01*
X-9533748Y6990000D02*
X-10056252Y6990000D01*
%TO.C,P6*%
X-20170000Y-5750000D02*
X-20170000Y-5500000D01*
X-20170000Y-6950000D02*
X-20170000Y-7200000D01*
X-19920000Y-5500000D02*
X-20170000Y-5500000D01*
X-19920000Y-7200000D02*
X-20170000Y-7200000D01*
X-18720000Y-5500000D02*
X-18470000Y-5500000D01*
X-18720000Y-7200000D02*
X-18470000Y-7200000D01*
X-18470000Y-5750000D02*
X-18470000Y-5500000D01*
X-18470000Y-6950000D02*
X-18470000Y-7200000D01*
%TO.C,P5*%
X-18470000Y-4410000D02*
X-18470000Y-4660000D01*
X-18470000Y-3210000D02*
X-18470000Y-2960000D01*
X-18720000Y-4660000D02*
X-18470000Y-4660000D01*
X-18720000Y-2960000D02*
X-18470000Y-2960000D01*
X-19920000Y-4660000D02*
X-20170000Y-4660000D01*
X-19920000Y-2960000D02*
X-20170000Y-2960000D01*
X-20170000Y-4410000D02*
X-20170000Y-4660000D01*
X-20170000Y-3210000D02*
X-20170000Y-2960000D01*
%TO.C,P4*%
X-18470000Y-1870000D02*
X-18470000Y-2120000D01*
X-18470000Y-670000D02*
X-18470000Y-420000D01*
X-18720000Y-2120000D02*
X-18470000Y-2120000D01*
X-18720000Y-420000D02*
X-18470000Y-420000D01*
X-19920000Y-2120000D02*
X-20170000Y-2120000D01*
X-19920000Y-420000D02*
X-20170000Y-420000D01*
X-20170000Y-1870000D02*
X-20170000Y-2120000D01*
X-20170000Y-670000D02*
X-20170000Y-420000D01*
%TO.C,P3*%
X-18470000Y670000D02*
X-18470000Y420000D01*
X-18470000Y1870000D02*
X-18470000Y2120000D01*
X-18720000Y420000D02*
X-18470000Y420000D01*
X-18720000Y2120000D02*
X-18470000Y2120000D01*
X-19920000Y420000D02*
X-20170000Y420000D01*
X-19920000Y2120000D02*
X-20170000Y2120000D01*
X-20170000Y670000D02*
X-20170000Y420000D01*
X-20170000Y1870000D02*
X-20170000Y2120000D01*
%TO.C,P2*%
X-18470000Y3210000D02*
X-18470000Y2960000D01*
X-18470000Y4410000D02*
X-18470000Y4660000D01*
X-18720000Y2960000D02*
X-18470000Y2960000D01*
X-18720000Y4660000D02*
X-18470000Y4660000D01*
X-19920000Y2960000D02*
X-20170000Y2960000D01*
X-19920000Y4660000D02*
X-20170000Y4660000D01*
X-20170000Y3210000D02*
X-20170000Y2960000D01*
X-20170000Y4410000D02*
X-20170000Y4660000D01*
%TO.C,P1*%
X-18470000Y5750000D02*
X-18470000Y5500000D01*
X-18470000Y6950000D02*
X-18470000Y7200000D01*
X-18720000Y5500000D02*
X-18470000Y5500000D01*
X-18720000Y7200000D02*
X-18470000Y7200000D01*
X-19920000Y5500000D02*
X-20170000Y5500000D01*
X-19920000Y7200000D02*
X-20170000Y7200000D01*
X-20170000Y5750000D02*
X-20170000Y5500000D01*
X-20170000Y6950000D02*
X-20170000Y7200000D01*
%TO.C,LD3*%
X-17041252Y-3170000D02*
X-16518748Y-3170000D01*
X-17041252Y-4450000D02*
X-16518748Y-4450000D01*
%TO.C,D1*%
X-16145000Y-6985000D02*
X-16145000Y-5715000D01*
X-14875000Y-5715000D02*
X-16145000Y-5715000D01*
X-14875000Y-6985000D02*
X-16145000Y-6985000D01*
%TD*%
%LPC*%
D12*
X8500000Y8000000D02*
X8500000Y-8000000D01*
D13*
%TO.C,CN4*%
X6715000Y-5715000D03*
%TD*%
D14*
%TO.C,CN3*%
X6715000Y-1905000D03*
%TD*%
%TO.C,CN2*%
X6715000Y1905000D03*
%TD*%
%TO.C,CN1*%
X6715000Y5715000D03*
%TD*%
D15*
%TO.C,LD5*%
X-590000Y6350000D03*
X-2490000Y6350000D03*
%TD*%
%TO.C,LD4*%
X-15830000Y-1270000D03*
X-17730000Y-1270000D03*
%TD*%
D16*
%TO.C,LD2*%
X-6935000Y-6350000D03*
X-5035000Y-6350000D03*
%TD*%
D15*
%TO.C,LD1*%
X-15830000Y3810000D03*
X-17730000Y3810000D03*
%TD*%
D17*
%TO.C,IC2*%
X-2098800Y-6985000D03*
X-2098800Y-5715000D03*
X-2098800Y-4445000D03*
X-2098800Y-3175000D03*
X-2098800Y-1905000D03*
X-2098800Y-635000D03*
X-2098800Y635000D03*
X-2098800Y1905000D03*
X2828800Y1905000D03*
X2828800Y635000D03*
X2828800Y-635000D03*
X2828800Y-1905000D03*
X2828800Y-3175000D03*
X2828800Y-4445000D03*
X2828800Y-5715000D03*
X2828800Y-6985000D03*
%TD*%
D18*
%TO.C,IC1*%
X970000Y4130000D03*
X970000Y6030000D03*
X3570000Y6030000D03*
X3570000Y5080000D03*
X3570000Y4130000D03*
%TD*%
D15*
%TO.C,C2*%
X-14555000Y1270000D03*
X-12655000Y1270000D03*
%TD*%
D16*
%TO.C,C1*%
X-590000Y4445000D03*
X-2490000Y4445000D03*
%TD*%
D19*
%TO.C,SW1*%
X-10140000Y-3975000D03*
X-5640000Y-3975000D03*
X-10140000Y3975000D03*
X-5640000Y3975000D03*
%TD*%
D15*
%TO.C,R10*%
X-6935000Y6350000D03*
X-5035000Y6350000D03*
%TD*%
%TO.C,R9*%
X-12655000Y-1270000D03*
X-14555000Y-1270000D03*
%TD*%
%TO.C,R8*%
X-12655000Y-3810000D03*
X-14555000Y-3810000D03*
%TD*%
D16*
%TO.C,R5*%
X-14555000Y6350000D03*
X-12655000Y6350000D03*
%TD*%
%TO.C,R4*%
X-15830000Y6350000D03*
X-17730000Y6350000D03*
%TD*%
%TO.C,R3*%
X-8845000Y-6350000D03*
X-10745000Y-6350000D03*
%TD*%
D15*
%TO.C,R2*%
X-14555000Y3810000D03*
X-12655000Y3810000D03*
%TD*%
D16*
%TO.C,R1*%
X-8845000Y6350000D03*
X-10745000Y6350000D03*
%TD*%
D20*
%TO.C,P6*%
X-19620000Y-6350000D03*
%TD*%
%TO.C,P5*%
X-19620000Y-3810000D03*
%TD*%
%TO.C,P4*%
X-19620000Y-1270000D03*
%TD*%
%TO.C,P3*%
X-19620000Y1270000D03*
%TD*%
%TO.C,P2*%
X-19620000Y3810000D03*
%TD*%
%TO.C,P1*%
X-19620000Y6350000D03*
%TD*%
D15*
%TO.C,LD3*%
X-15830000Y-3810000D03*
X-17730000Y-3810000D03*
%TD*%
D21*
%TO.C,D1*%
X-17260000Y-6350000D03*
X-13760000Y-6350000D03*
%TD*%
D22*
X18780000Y-5500000D03*
X18780000Y5500000D03*
D23*
X-4080000Y4445000D03*
X4810000Y4434475D03*
X-4080000Y-635000D03*
X-11065000Y-1905000D03*
X-13922500Y7302500D03*
X-10112500Y2222500D03*
X-16462500Y5397500D03*
X-9160000Y952500D03*
X-9160000Y-635000D03*
X682500Y-4445000D03*
X682500Y-5715000D03*
%LPD*%
M02*
