M48
; DRILL file {KiCad 7.0.5} date Fri Oct  6 16:43:18 2023
; FORMAT={-:-/ absolute / metric / decimal}
; #@! TF.CreationDate,2023-10-06T16:43:18+02:00
; #@! TF.GenerationSoftware,Kicad,Pcbnew,7.0.5
; #@! TF.FileFunction,MixedPlating,1,2
FMAT,2
METRIC
; #@! TA.AperFunction,Plated,PTH,ViaDrill
T1C0.400
; #@! TA.AperFunction,Plated,PTH,ComponentDrill
T2C0.900
; #@! TA.AperFunction,Plated,PTH,ComponentDrill
T3C1.200
; #@! TA.AperFunction,Plated,PTH,ViaDrill
T4C3.100
%
G90
G05
T1
X-16.462Y5.397
X-13.922Y7.302
X-11.065Y-1.905
X-10.112Y2.222
X-9.16Y0.952
X-9.16Y-0.635
X-4.08Y4.445
X-4.08Y-0.635
X0.682Y-4.445
X0.682Y-5.715
X4.81Y4.434
T2
X-19.32Y6.35
X-19.32Y3.81
X-19.32Y1.27
X-19.32Y-1.27
X-19.32Y-3.81
X-19.32Y-6.35
T3
X6.715Y5.715
X6.715Y1.905
X6.715Y-1.905
X6.715Y-5.715
T4
X18.78Y5.5
X18.78Y-5.5
T0
M30
